# xmcd
#
# Track frame offsets: 
#        150
#        12750
#        36740
#        53465
#        66133
#        80660
#        90580
#        107418
#        120835
#        139298
#        154130
#        175073
#        191836
#        208474
#        228749
#        252451
#        265763
#        289913
#        320475
#        338476
#
# Disc length: 4792 seconds
#
# Revision: 1
# Processed by: cddbd v1.5.2PL0 Copyright (c) Steve Scherf et al.
# Submitted via: ExactAudioCopy v0.99pb4
#
DISCID=2212b614
DTITLE=Stevie Ray Vaughan and Double Trouble - The First Thunder (1979) 
DTITLE=& Greatest Hits vol. 1 (1995)
DYEAR=1979
DGENRE=Blues
TTITLE0=Rude Mood [Live with Soundcheck, Austin, April 1979]
TTITLE1=Dirty Pool [Live with Soundcheck, Austin, April 1979]
TTITLE2=I'm Cryin' [Live with Soundcheck, Austin, April 1979]
TTITLE3=You're Gonna Miss Me Baby [Live with Soundcheck, Austin, April
TTITLE3=1979]
TTITLE4=Pride And Joy [Live with Soundcheck, Austin, April 1979]
TTITLE5=Love Struck Baby [Live with Soundcheck, Austin, April 1979]
TTITLE6=Natural Born Lover [feat. Lou Ann Barton]
TTITLE7=Tina Nina Nu [feat. Lou Ann Barton]
TTITLE8=Scratch My Back [feat. Lou Ann Barton]
TTITLE9=I'll Change [feat. Lou Ann Barton]
TTITLE10=Shake A Hand, Shake A Hand [feat. Lou Ann Barton]
TTITLE11=Oh Baby [feat. Lou Ann Barton]
TTITLE12=Sugar Coated Love [feat. Lou Ann Barton]
TTITLE13=Love In Vain [feat. Johnny Reno on sax, Live at "Peona's", Oc
TTITLE13=t 79]
TTITLE14=You Can Have My Husband But Please Don't Mess With My Man [fe
TTITLE14=at. Lou Ann Barton and Johnny Reno, "Peona's", Oct 79]
TTITLE15=My Baby's Gone [feat. Lou Ann Barton and Johnny Reno, "Peona's"
TTITLE15=, Oct 79]
TTITLE16=Texas Flood [Greatest Hits Vol.1, 1995]
TTITLE17=Little Wing [Greatest Hits Vol.1, 1995]
TTITLE18=Cold Shot [credited as "Cold It"][Greatest Hits Vol.1, 1995]
TTITLE19=Couldn't Stand The Weather [Greatest Hits Vol.1, 1995]
EXTD=
EXTT0=
EXTT1=
EXTT2=
EXTT3=
EXTT4=
EXTT5=
EXTT6=
EXTT7=
EXTT8=
EXTT9=
EXTT10=
EXTT11=
EXTT12=
EXTT13=
EXTT14=
EXTT15=
EXTT16=
EXTT17=
EXTT18=
EXTT19=
PLAYORDER=
